<svg xmlns="http://www.w3.org/2000/svg" fill="none" viewBox="0 0 30 30"><path fill="#B5BFC7" d="M0 7.5C0 3.35786 3.35786 0 7.5 0H22.5C26.6421 0 30 3.35786 30 7.5V22.5C30 26.6421 26.6421 30 22.5 30H7.5C3.35786 30 0 26.6421 0 22.5V7.5Z"/><path fill="#B5BFC7" d="M14.1731 12.6529L14.3684 9.32639H18.6712L17.814 12.6529H19.3331L15.6923 17.9263L15.8281 12.6529H14.1731Z"/><path stroke="#fff" stroke-linecap="round" stroke-linejoin="round" stroke-width="1.333" d="M16.7531 20.2197C20.7111 20.2197 23.9197 17.011 23.9197 13.053C23.9197 9.09502 20.7111 5.88641 16.7531 5.88641C12.7951 5.88641 9.5865 9.09502 9.5865 13.053M4.3335 23.07L8.06014 19.3434L6.05348 17.3367L12.9334 16.4767L12.3601 23.6433L10.7835 22.0667M14.3684 9.32639L14.1731 12.6529H15.8281L15.6923 17.9263L19.3331 12.6529H17.814L18.6712 9.32639H14.3684Z"/></svg>